# xmcd
#
# Track frame offsets:
#	150
#	6319
#	24750
#	28819
#	44933
#	61023
#	76059
#	91309
#	107517
#	124333
#	134251
#	154624
#	167296
#	181917
#	201640
#	217578
#	223325
#
# Disc length: 3156 seconds
#
# Revision: 0
# Processed by: cddbd v1.5.2PL0 Copyright (c) Steve Scherf et al.
# Submitted via: EZCDAudioConverter 2.1.7.1
#
DISCID=e00c5211
DTITLE=Crowded House - Crowded House (1986) 2/2
DYEAR=1900
DGENRE=
TTITLE0=Something So Strong [Home Demo]
TTITLE1=Hole In The River [Studio Demo]
TTITLE2=Love You 'Til The Day I Die [Home Demo]
TTITLE3=That's What I Call Love [Studio Demo]
TTITLE4=Can't Carry On [Studio Demo]
TTITLE5=Walking On The Pier [Studio Demo]
TTITLE6=Does Anyone Here Understand My Girlfriend [Studio Demo]
TTITLE7=Oblivion [Studio Demo]
TTITLE8=Walking On The Spot [Studio Demo]
TTITLE9=Something So Strong [Studio Demo]
TTITLE10=Now We're Getting Somewhere [Studio Demo]
TTITLE11=Stranger Underneath Your Skin [Home Demo]
TTITLE12=Don't Dream It's Over [Home Demo]
TTITLE13=Left Hand [Live]
TTITLE14=Grabbing By The Handful [Live]
TTITLE15=World Where You Live [Writing Demo]
TTITLE16=Recurring Dream [Original Version]
EXTD=
EXTT0=
EXTT1=
EXTT2=
EXTT3=
EXTT4=
EXTT5=
EXTT6=
EXTT7=
EXTT8=
EXTT9=
EXTT10=
EXTT11=
EXTT12=
EXTT13=
EXTT14=
EXTT15=
EXTT16=
PLAYORDER=
